<mxfile host="app.diagrams.net" modified="2023-07-19T01:19:33.771Z" agent="Mozilla/5.0 (Windows NT 10.0; Win64; x64) AppleWebKit/537.36 (KHTML, like Gecko) Chrome/114.0.0.0 Safari/537.36" etag="azT1lYPk05RdJEmuTxWS" version="21.3.6" type="github">
  <diagram name="Strona-1" id="WtSHOiMAqrSP7CnOxSbL">
    <mxGraphModel dx="1105" dy="569" grid="1" gridSize="10" guides="1" tooltips="1" connect="1" arrows="1" fold="1" page="1" pageScale="1" pageWidth="827" pageHeight="1169" math="0" shadow="0">
      <root>
        <mxCell id="0" />
        <mxCell id="1" parent="0" />
        <mxCell id="ksjOLzvvSlsWlMK3vidF-1" value="Użytkownik" style="shape=umlActor;verticalLabelPosition=bottom;verticalAlign=top;html=1;outlineConnect=0;" vertex="1" parent="1">
          <mxGeometry x="40" y="260" width="30" height="60" as="geometry" />
        </mxCell>
        <mxCell id="ksjOLzvvSlsWlMK3vidF-5" value="System logowania w systemie" style="shape=umlFrame;whiteSpace=wrap;html=1;pointerEvents=0;width=130;height=60;" vertex="1" parent="1">
          <mxGeometry x="140" y="160" width="670" height="380" as="geometry" />
        </mxCell>
        <mxCell id="ksjOLzvvSlsWlMK3vidF-6" value="Administrator systemu" style="shape=umlActor;verticalLabelPosition=bottom;verticalAlign=top;html=1;outlineConnect=0;" vertex="1" parent="1">
          <mxGeometry x="880" y="250" width="30" height="60" as="geometry" />
        </mxCell>
        <mxCell id="ksjOLzvvSlsWlMK3vidF-7" value="Logowanie" style="ellipse;whiteSpace=wrap;html=1;" vertex="1" parent="1">
          <mxGeometry x="290" y="190" width="120" height="80" as="geometry" />
        </mxCell>
        <mxCell id="ksjOLzvvSlsWlMK3vidF-9" value="Wylogowanie" style="ellipse;whiteSpace=wrap;html=1;" vertex="1" parent="1">
          <mxGeometry x="290" y="280" width="120" height="80" as="geometry" />
        </mxCell>
        <mxCell id="ksjOLzvvSlsWlMK3vidF-10" value="Przywracanie hasła" style="ellipse;whiteSpace=wrap;html=1;" vertex="1" parent="1">
          <mxGeometry x="294" y="370" width="120" height="80" as="geometry" />
        </mxCell>
        <mxCell id="ksjOLzvvSlsWlMK3vidF-11" value="&lt;font face=&quot;Calibri, sans-serif&quot;&gt;Zarządzanie sesjami&lt;/font&gt;" style="ellipse;whiteSpace=wrap;html=1;" vertex="1" parent="1">
          <mxGeometry x="440" y="190" width="120" height="80" as="geometry" />
        </mxCell>
        <mxCell id="ksjOLzvvSlsWlMK3vidF-12" value="&lt;font face=&quot;Calibri, sans-serif&quot;&gt;Przyznawanie uprawnień&lt;/font&gt;" style="ellipse;whiteSpace=wrap;html=1;" vertex="1" parent="1">
          <mxGeometry x="580" y="190" width="120" height="80" as="geometry" />
        </mxCell>
      </root>
    </mxGraphModel>
  </diagram>
</mxfile>
